<?xml version="1.0" standalone="no"?><!DOCTYPE svg PUBLIC "-//W3C//DTD SVG 1.1//EN" "http://www.w3.org/Graphics/SVG/1.1/DTD/svg11.dtd"><svg t="1520233312151" class="icon" style="" viewBox="0 0 1024 1024" version="1.1" xmlns="http://www.w3.org/2000/svg" p-id="1056" xmlns:xlink="http://www.w3.org/1999/xlink" width="200" height="200"><defs><style type="text/css"></style></defs><path d="M495.383273 413.928727c0-52.363636-31.278545-133.911273-91.694545-133.911273-18.897455 0-39.284364 9.448727-50.967273 24.064-12.381091 15.266909-16.011636 34.909091-16.011636 53.853091 0 48.733091 28.392727 129.536 90.996364 129.536 18.199273 0 37.841455-8.750545 49.524364-20.386909C493.940364 450.280727 495.383273 427.008 495.383273 413.928727z" p-id="1057"></path><path d="M1024 512c0-282.763636-229.236364-512-512-512C229.236364 0 0 229.236364 0 512s229.236364 512 512 512C794.763636 1024 1024 794.763636 1024 512zM669.556364 413.556364l39.377455 0 0 78.754909 78.754909 0 0 39.377455-78.754909 0 0 78.754909-39.377455 0 0-78.754909-78.754909 0 0-39.377455 78.754909 0L669.556364 413.556364zM236.311273 706.513455c0-26.205091 13.079273-63.301818 56.040727-88.808727 45.102545-27.648 106.263273-31.278545 138.984727-33.466182-10.193455-13.125818-21.829818-26.949818-21.829818-49.477818 0-12.381091 3.630545-19.642182 7.261091-28.392727-8.005818 0.698182-16.011636 1.442909-23.319273 1.442909-77.125818 0-120.785455-57.530182-120.785455-114.269091 0-33.466182 15.266909-70.609455 46.592-97.512727C360.773818 261.818182 410.251636 256 449.536 256l149.922909 0-46.592 26.158545-45.102545 0 0 0c16.709818 13.824 51.665455 42.961455 51.665455 98.257455 0 53.853091-30.580364 79.313455-61.114182 103.330909-9.448727 9.448727-20.386909 19.642182-20.386909 35.653818s10.938182 24.762182 18.897455 31.278545l26.205091 20.386909c32.023273 26.903273 61.114182 51.665455 61.114182 101.934545 0 68.375273-66.234182 137.541818-191.394909 137.541818C287.278545 810.589091 236.311273 760.366545 236.311273 706.513455z" p-id="1058"></path><path d="M456.098909 605.323636C450.280727 604.625455 446.650182 604.625455 439.389091 604.625455c-6.562909 0-45.847273 1.442909-76.427636 11.682909-16.011636 5.818182-62.603636 23.272727-62.603636 74.938182 0 51.665455 50.222545 88.762182 128.093091 88.762182 69.864727 0 106.961455-33.466182 106.961455-78.568727C535.412364 664.296727 511.441455 644.654545 456.098909 605.323636z" p-id="1059"></path></svg>